<svg width="16" height="16" viewBox="0 0 16 16" fill="none" xmlns="http://www.w3.org/2000/svg">
<path d="M10.5002 8.5C10.5002 9.88071 9.3809 11 8.00018 11C6.61947 11 5.50018 9.88071 5.50018 8.5C5.50018 7.11929 6.61947 6 8.00018 6C9.3809 6 10.5002 7.11929 10.5002 8.5Z" fill="#A6B7D4"/>
<path fill-rule="evenodd" clip-rule="evenodd" d="M2.00018 4C0.895614 4 0.000183105 4.89543 0.000183105 6V12C0.000183105 13.1046 0.895614 14 2.00018 14H14.0002C15.1048 14 16.0002 13.1046 16.0002 12V6C16.0002 4.89543 15.1048 4 14.0002 4H12.8286C12.2982 4 11.7895 3.78929 11.4144 3.41421L10.586 2.58579C10.2109 2.21071 9.70219 2 9.17176 2H6.82861C6.29818 2 5.78947 2.21071 5.4144 2.58579L4.58597 3.41421C4.2109 3.78929 3.70219 4 3.17176 4H2.00018ZM2.50018 6C2.77633 6 3.00018 5.77614 3.00018 5.5C3.00018 5.22386 2.77633 5 2.50018 5C2.22404 5 2.00018 5.22386 2.00018 5.5C2.00018 5.77614 2.22404 6 2.50018 6ZM11.5002 8.5C11.5002 10.433 9.93318 12 8.00018 12C6.06719 12 4.50018 10.433 4.50018 8.5C4.50018 6.567 6.06719 5 8.00018 5C9.93318 5 11.5002 6.567 11.5002 8.5Z" fill="#A6B7D4"/>
</svg>
