<svg width="12" height="12" viewBox="0 0 12 12" fill="none" xmlns="http://www.w3.org/2000/svg">
<mask id="mask0_347_433" style="mask-type:alpha" maskUnits="userSpaceOnUse" x="-1" y="0" width="13" height="12">
<path fill-rule="evenodd" clip-rule="evenodd" d="M2.00817 8.92047C2.16597 9.07871 2.24498 9.29907 2.22368 9.52153C2.17595 10.0201 2.06602 10.5389 1.92483 11.0209C2.971 10.7791 3.60994 10.4986 3.90037 10.3514C4.06522 10.2679 4.25512 10.2481 4.43362 10.296C4.927 10.4283 5.45283 10.5 5.99976 10.5C8.99646 10.5 11.2498 8.39434 11.2498 6C11.2498 3.60566 8.99646 1.5 5.99976 1.5C3.00306 1.5 0.749756 3.60566 0.749756 6C0.749756 7.10107 1.21273 8.12279 2.00817 8.92047ZM1.63843 11.8492C1.63337 11.8502 1.62832 11.8512 1.62325 11.8522C1.55438 11.8658 1.48417 11.8791 1.41262 11.8922C1.31225 11.9106 1.20924 11.9285 1.10355 11.9458C0.954285 11.9702 0.84003 11.8141 0.89899 11.6748C0.937511 11.5838 0.975484 11.4884 1.01248 11.3896C1.03598 11.3267 1.05909 11.2625 1.0817 11.1971C1.08267 11.1942 1.08364 11.1914 1.08462 11.1886C1.27042 10.6488 1.42173 10.0283 1.47709 9.45005C0.557052 8.52741 -0.000244141 7.32065 -0.000244141 6C-0.000244141 3.10051 2.68605 0.75 5.99976 0.75C9.31346 0.75 11.9998 3.10051 11.9998 6C11.9998 8.8995 9.31346 11.25 5.99976 11.25C5.38719 11.25 4.79606 11.1697 4.23938 11.0204C3.84978 11.2178 3.01051 11.5772 1.63843 11.8492Z" fill="black"/>
</mask>
<g mask="url(#mask0_347_433)">
<rect x="-0.000244141" width="12" height="12" fill="white"/>
</g>
</svg>
