<svg width="24" height="24" viewBox="0 0 24 24" fill="none" xmlns="http://www.w3.org/2000/svg">
<path fill-rule="evenodd" clip-rule="evenodd" d="M7.00018 12C7.00018 10.8954 6.10475 10 5.00018 10C3.89561 10 3.00018 10.8954 3.00018 12C3.00018 13.1046 3.89561 14 5.00018 14C6.10475 14 7.00018 13.1046 7.00018 12Z" fill="#425466"/>
<path fill-rule="evenodd" clip-rule="evenodd" d="M14.0002 12C14.0002 10.8954 13.1048 10 12.0002 10C10.8956 10 10.0002 10.8954 10.0002 12C10.0002 13.1046 10.8956 14 12.0002 14C13.1048 14 14.0002 13.1046 14.0002 12Z" fill="#425466"/>
<path fill-rule="evenodd" clip-rule="evenodd" d="M21.0002 12C21.0002 10.8954 20.1048 10 19.0002 10C17.8956 10 17.0002 10.8954 17.0002 12C17.0002 13.1046 17.8956 14 19.0002 14C20.1048 14 21.0002 13.1046 21.0002 12Z" fill="#425466"/>
</svg>
