<svg width="16" height="16" viewBox="0 0 16 16" fill="none" xmlns="http://www.w3.org/2000/svg">
<path fill-rule="evenodd" clip-rule="evenodd" d="M1.00018 4V14C1.00018 14.5523 1.4479 15 2.00018 15H14.0002C14.5525 15 15.0002 14.5523 15.0002 14V4H1.00018ZM2.00018 1C0.895614 1 0.000183105 1.89543 0.000183105 3V14C0.000183105 15.1046 0.895614 16 2.00018 16H14.0002C15.1048 16 16.0002 15.1046 16.0002 14V3C16.0002 1.89543 15.1048 1 14.0002 1H2.00018Z" fill="#A6B7D4"/>
<path fill-rule="evenodd" clip-rule="evenodd" d="M3.50018 0C3.77633 0 4.00018 0.223858 4.00018 0.5V1C4.00018 1.27614 3.77633 1.5 3.50018 1.5C3.22404 1.5 3.00018 1.27614 3.00018 1V0.5C3.00018 0.223858 3.22404 0 3.50018 0Z" fill="#A6B7D4"/>
<path fill-rule="evenodd" clip-rule="evenodd" d="M12.5002 0C12.7763 0 13.0002 0.223858 13.0002 0.5V1C13.0002 1.27614 12.7763 1.5 12.5002 1.5C12.224 1.5 12.0002 1.27614 12.0002 1V0.5C12.0002 0.223858 12.224 0 12.5002 0Z" fill="#A6B7D4"/>
<rect x="11.0002" y="6" width="2" height="2" rx="0.5" fill="#A6B7D4"/>
</svg>
