<svg width="80" height="80" viewBox="0 0 80 80" fill="none" xmlns="http://www.w3.org/2000/svg">
<circle cx="40" cy="40" r="40" fill="url(#paint0_linear_1_2823)"/>
<path fill-rule="evenodd" clip-rule="evenodd" d="M53.617 30.6383C53.617 28.7582 52.0929 27.234 50.2128 27.234H29.7872C27.9071 27.234 26.383 28.7582 26.383 30.6383V44.2553C26.383 46.1354 27.9071 47.6596 29.7872 47.6596H46.1035C46.5549 47.6596 46.9878 47.8389 47.3071 48.1581L52.1642 53.0152C52.7003 53.5514 53.617 53.1716 53.617 52.4134V30.6383ZM34.8936 37.4468C34.8936 38.3869 34.1316 39.1489 33.1915 39.1489C32.2514 39.1489 31.4894 38.3869 31.4894 37.4468C31.4894 36.5067 32.2514 35.7447 33.1915 35.7447C34.1316 35.7447 34.8936 36.5067 34.8936 37.4468ZM41.7021 37.4468C41.7021 38.3869 40.9401 39.1489 40 39.1489C39.0599 39.1489 38.2979 38.3869 38.2979 37.4468C38.2979 36.5067 39.0599 35.7447 40 35.7447C40.9401 35.7447 41.7021 36.5067 41.7021 37.4468ZM46.8085 39.1489C47.7486 39.1489 48.5106 38.3869 48.5106 37.4468C48.5106 36.5067 47.7486 35.7447 46.8085 35.7447C45.8685 35.7447 45.1064 36.5067 45.1064 37.4468C45.1064 38.3869 45.8685 39.1489 46.8085 39.1489Z" fill="white"/>
<defs>
<linearGradient id="paint0_linear_1_2823" x1="80" y1="0" x2="0" y2="80" gradientUnits="userSpaceOnUse">
<stop stop-color="#FFEF5E"/>
<stop offset="1" stop-color="#F7936F"/>
</linearGradient>
</defs>
</svg>
