<svg width="210" height="49" viewBox="0 0 210 49" fill="none" xmlns="http://www.w3.org/2000/svg">
<mask id="mask0_1_17273" style="mask-type:alpha" maskUnits="userSpaceOnUse" x="24" y="16" width="16" height="17">
<path fill-rule="evenodd" clip-rule="evenodd" d="M30 29C30 29.2761 30.2239 29.5 30.5 29.5L38.5 29.5C38.7761 29.5 39 29.2761 39 29L39 20C39 19.7239 38.7761 19.5 38.5 19.5L30.5 19.5C30.2239 19.5 30 19.7239 30 20L30 22C30 22.2761 29.7761 22.5 29.5 22.5C29.2239 22.5 29 22.2761 29 22L29 20C29 19.1716 29.6716 18.5 30.5 18.5L38.5 18.5C39.3284 18.5 40 19.1716 40 20L40 29C40 29.8284 39.3284 30.5 38.5 30.5L30.5 30.5C29.6716 30.5 29 29.8284 29 29L29 27C29 26.7239 29.2239 26.5 29.5 26.5C29.7761 26.5 30 26.7239 30 27L30 29Z" fill="black"/>
<path fill-rule="evenodd" clip-rule="evenodd" d="M24.1464 24.8536C23.9512 24.6583 23.9512 24.3417 24.1464 24.1464L27.1464 21.1464C27.3417 20.9512 27.6583 20.9512 27.8536 21.1464C28.0488 21.3417 28.0488 21.6583 27.8536 21.8536L25.7071 24L34.5 24C34.7761 24 35 24.2239 35 24.5C35 24.7761 34.7761 25 34.5 25L25.7071 25L27.8536 27.1464C28.0488 27.3417 28.0488 27.6583 27.8536 27.8536C27.6583 28.0488 27.3417 28.0488 27.1464 27.8536L24.1464 24.8536Z" fill="black"/>
</mask>
<g mask="url(#mask0_1_17273)">
<rect x="24" y="16.5" width="16" height="16" fill="#A0AEC0"/>
</g>
<path d="M61.0043 30V19.8182H62.8487V28.4538H67.3331V30H61.0043ZM72.1854 30.1491C71.4396 30.1491 70.7933 29.9851 70.2464 29.657C69.6996 29.3288 69.2753 28.8698 68.9737 28.2798C68.6754 27.6899 68.5263 27.0005 68.5263 26.2116C68.5263 25.4228 68.6754 24.7318 68.9737 24.1385C69.2753 23.5452 69.6996 23.0845 70.2464 22.7564C70.7933 22.4283 71.4396 22.2642 72.1854 22.2642C72.9311 22.2642 73.5774 22.4283 74.1243 22.7564C74.6712 23.0845 75.0938 23.5452 75.392 24.1385C75.6937 24.7318 75.8445 25.4228 75.8445 26.2116C75.8445 27.0005 75.6937 27.6899 75.392 28.2798C75.0938 28.8698 74.6712 29.3288 74.1243 29.657C73.5774 29.9851 72.9311 30.1491 72.1854 30.1491ZM72.1953 28.7074C72.5997 28.7074 72.9377 28.5964 73.2095 28.3743C73.4813 28.1489 73.6835 27.8473 73.8161 27.4695C73.9519 27.0916 74.0199 26.6707 74.0199 26.2067C74.0199 25.7393 73.9519 25.3168 73.8161 24.9389C73.6835 24.5578 73.4813 24.2545 73.2095 24.0291C72.9377 23.8037 72.5997 23.6911 72.1953 23.6911C71.781 23.6911 71.4363 23.8037 71.1612 24.0291C70.8894 24.2545 70.6856 24.5578 70.5497 24.9389C70.4171 25.3168 70.3509 25.7393 70.3509 26.2067C70.3509 26.6707 70.4171 27.0916 70.5497 27.4695C70.6856 27.8473 70.8894 28.1489 71.1612 28.3743C71.4363 28.5964 71.781 28.7074 72.1953 28.7074ZM80.693 33.0227C80.0467 33.0227 79.4915 32.9349 79.0275 32.7592C78.5635 32.5869 78.1906 32.3549 77.9089 32.0632C77.6272 31.7715 77.4316 31.4484 77.3223 31.0938L78.943 30.701C79.0159 30.8501 79.122 30.9976 79.2612 31.1435C79.4004 31.2926 79.5877 31.4152 79.823 31.5114C80.0616 31.6108 80.3616 31.6605 80.7228 31.6605C81.2333 31.6605 81.6558 31.5362 81.9906 31.2876C82.3253 31.0424 82.4927 30.638 82.4927 30.0746V28.6278H82.4032C82.3104 28.8134 82.1745 29.004 81.9956 29.1996C81.8199 29.3951 81.5862 29.5592 81.2946 29.6918C81.0062 29.8243 80.6433 29.8906 80.2058 29.8906C79.6191 29.8906 79.0872 29.7531 78.6099 29.478C78.1359 29.1996 77.7581 28.7853 77.4764 28.2351C77.198 27.6816 77.0588 26.9889 77.0588 26.157C77.0588 25.3184 77.198 24.6108 77.4764 24.0341C77.7581 23.4541 78.1376 23.0149 78.6149 22.7166C79.0922 22.415 79.6241 22.2642 80.2108 22.2642C80.6582 22.2642 81.0261 22.3404 81.3145 22.4929C81.6061 22.642 81.8381 22.8227 82.0105 23.0348C82.1828 23.2436 82.3137 23.4408 82.4032 23.6264H82.5027V22.3636H84.2775V30.1243C84.2775 30.7772 84.1217 31.3175 83.8102 31.745C83.4986 32.1726 83.0727 32.4924 82.5325 32.7045C81.9922 32.9167 81.3791 33.0227 80.693 33.0227ZM80.7079 28.4787C81.0891 28.4787 81.4139 28.3859 81.6824 28.2003C81.9508 28.0147 82.1547 27.7479 82.2939 27.3999C82.4331 27.0518 82.5027 26.6342 82.5027 26.147C82.5027 25.6664 82.4331 25.2455 82.2939 24.8842C82.158 24.523 81.9558 24.2429 81.6873 24.044C81.4222 23.8419 81.0957 23.7408 80.7079 23.7408C80.3069 23.7408 79.9721 23.8452 79.7037 24.054C79.4352 24.2628 79.233 24.5495 79.0971 24.9141C78.9612 25.2753 78.8933 25.6863 78.8933 26.147C78.8933 26.6143 78.9612 27.0237 79.0971 27.375C79.2363 27.723 79.4402 27.9948 79.7086 28.1903C79.9804 28.3826 80.3135 28.4787 80.7079 28.4787ZM89.4529 30.1491C88.7072 30.1491 88.0609 29.9851 87.514 29.657C86.9672 29.3288 86.5429 28.8698 86.2413 28.2798C85.943 27.6899 85.7939 27.0005 85.7939 26.2116C85.7939 25.4228 85.943 24.7318 86.2413 24.1385C86.5429 23.5452 86.9672 23.0845 87.514 22.7564C88.0609 22.4283 88.7072 22.2642 89.4529 22.2642C90.1987 22.2642 90.845 22.4283 91.3919 22.7564C91.9387 23.0845 92.3613 23.5452 92.6596 24.1385C92.9612 24.7318 93.112 25.4228 93.112 26.2116C93.112 27.0005 92.9612 27.6899 92.6596 28.2798C92.3613 28.8698 91.9387 29.3288 91.3919 29.657C90.845 29.9851 90.1987 30.1491 89.4529 30.1491ZM89.4629 28.7074C89.8672 28.7074 90.2053 28.5964 90.4771 28.3743C90.7489 28.1489 90.9511 27.8473 91.0836 27.4695C91.2195 27.0916 91.2875 26.6707 91.2875 26.2067C91.2875 25.7393 91.2195 25.3168 91.0836 24.9389C90.9511 24.5578 90.7489 24.2545 90.4771 24.0291C90.2053 23.8037 89.8672 23.6911 89.4629 23.6911C89.0486 23.6911 88.7039 23.8037 88.4288 24.0291C88.157 24.2545 87.9532 24.5578 87.8173 24.9389C87.6847 25.3168 87.6184 25.7393 87.6184 26.2067C87.6184 26.6707 87.6847 27.0916 87.8173 27.4695C87.9532 27.8473 88.157 28.1489 88.4288 28.3743C88.7039 28.5964 89.0486 28.7074 89.4629 28.7074ZM99.5067 26.7884V22.3636H101.306V30H99.5614V28.6428H99.4819C99.3095 29.0703 99.0262 29.42 98.6317 29.6918C98.2406 29.9635 97.7584 30.0994 97.185 30.0994C96.6845 30.0994 96.2421 29.9884 95.8576 29.7663C95.4764 29.541 95.1781 29.2145 94.9627 28.7869C94.7473 28.3561 94.6396 27.8357 94.6396 27.2259V22.3636H96.4393V26.9474C96.4393 27.4313 96.5719 27.8158 96.837 28.1009C97.1022 28.3859 97.4502 28.5284 97.881 28.5284C98.1462 28.5284 98.4031 28.4638 98.6516 28.3345C98.9002 28.2053 99.104 28.013 99.2631 27.7578C99.4255 27.4993 99.5067 27.1761 99.5067 26.7884ZM106.97 22.3636V23.7557H102.58V22.3636H106.97ZM103.664 20.5341H105.464V27.7031C105.464 27.9451 105.5 28.1307 105.573 28.2599C105.65 28.3859 105.749 28.4721 105.872 28.5185C105.994 28.5649 106.13 28.5881 106.279 28.5881C106.392 28.5881 106.495 28.5798 106.588 28.5632C106.684 28.5466 106.757 28.5317 106.806 28.5185L107.11 29.9254C107.013 29.9586 106.876 29.995 106.697 30.0348C106.521 30.0746 106.306 30.0978 106.051 30.1044C105.6 30.1177 105.194 30.0497 104.833 29.9006C104.471 29.7481 104.185 29.5128 103.972 29.1946C103.764 28.8764 103.661 28.4787 103.664 28.0014V20.5341Z" fill="#425466"/>
</svg>
